<svg xmlns="http://www.w3.org/2000/svg" width="500" height="799" fill="none" viewBox="0 0 500 799"><g filter="url(#filter0_d_3123:45199)"><mask id="mask0_3123:45199" width="468" height="772" x="16" y="15" maskUnits="userSpaceOnUse" style="mask-type:alpha"><rect width="467.349" height="770.734" x="16.115" y="15.973" fill="#F2F2F2" rx="19.475"/></mask><g mask="url(#mask0_3123:45199)"><rect width="1144.81" height="854.352" x="-272.499" y="-40.552" fill="#fff"/></g></g><path fill="#E5E5E5" d="M297.444 352.556V447.444H202.556V352.556H297.444ZM297.444 339H202.556C195.1 339 189 345.1 189 352.556V447.444C189 454.9 195.1 461 202.556 461H297.444C304.9 461 311 454.9 311 447.444V352.556C311 345.1 304.9 339 297.444 339ZM264.504 399.051L244.171 425.281L229.667 407.727L209.333 433.889H290.667L264.504 399.051Z"/><defs><filter id="filter0_d_3123:45199" width="522.992" height="826.377" x="-11.707" y="-11.848" color-interpolation-filters="sRGB" filterUnits="userSpaceOnUse"><feFlood flood-opacity="0" result="BackgroundImageFix"/><feColorMatrix in="SourceAlpha" result="hardAlpha" type="matrix" values="0 0 0 0 0 0 0 0 0 0 0 0 0 0 0 0 0 0 127 0"/><feOffset/><feGaussianBlur stdDeviation="13.911"/><feColorMatrix type="matrix" values="0 0 0 0 0 0 0 0 0 0 0 0 0 0 0 0 0 0 0.25 0"/><feBlend in2="BackgroundImageFix" mode="normal" result="effect1_dropShadow_3123:45199"/><feBlend in="SourceGraphic" in2="effect1_dropShadow_3123:45199" mode="normal" result="shape"/></filter></defs></svg>